rec1_005.mot
nRows=22
nColumns=19

name rec1_005.mot
datacolumns 19
datarows 22
range 15.0061190967 15.0481196170
endheader
time	ground_force_vx	ground_force_vy	ground_force_vz	ground_force_px	ground_force_py	ground_force_pz	1_ground_force_vx	1_ground_force_vy	1_ground_force_vz	1_ground_force_px	1_ground_force_py	1_ground_force_pz	ground_torque_x	ground_torque_y	ground_torque_z	1_ground_torque_x	1_ground_torque_y	1_ground_torque_z	
       15.0061190967	      157.6869908119	      451.7461725981	        7.4202231799	       -0.7000000000	       -0.0180000000	        0.5600000000	      -57.3297345803	      496.6635348860	      -22.2902191853	       -0.7000000000	       -0.0180000000	       -0.5600000000	      219.2429354591	      -62.9287484346	      294.5759959652	     -241.3379198775	        4.3278353155	      606.2203699503	
       15.0081193119	      154.2240866451	      434.4112475572	        8.5126005675	       -0.7000000000	       -0.0180000000	        0.5600000000	      -57.3781619569	      493.9888588853	      -20.8121547479	       -0.7000000000	       -0.0180000000	       -0.5600000000	      210.7823957594	      -62.0495051804	      282.3095733600	     -239.9411554822	        2.6197243654	      601.6407823250	
       15.0101190473	      150.4415217213	      416.9790204536	        9.5523818789	       -0.7000000000	       -0.0180000000	        0.5600000000	      -57.4290076018	      492.0845556503	      -19.0761850431	       -0.7000000000	       -0.0180000000	       -0.5600000000	      202.2714725964	      -61.0379671318	      270.0810652240	     -238.8921677378	        0.5711653906	      597.9897894322	
       15.0121193424	      146.3553126743	      399.4877125490	       10.5349888015	       -0.7000000000	       -0.0180000000	        0.5600000000	      -57.5186624188	      491.0895773368	      -17.1024563177	       -0.7000000000	       -0.0180000000	       -0.5600000000	      193.7292144210	      -59.8999628252	      257.9159429228	     -238.2592744800	       -1.8104935451	      595.4518866337	
       15.0141191977	      141.9877613361	      381.9751412620	       11.4544211021	       -0.7000000000	       -0.0180000000	        0.5600000000	      -57.6786523121	      491.1021608454	      -14.9173196158	       -0.7000000000	       -0.0180000000	       -0.5600000000	      185.1743634281	      -58.6427590272	      245.8386945540	     -238.0915295506	       -4.5078249763	      594.1613368021	
       15.0161193730	      137.3669919397	      364.4792934352	       12.3031211205	       -0.7000000000	       -0.0180000000	        0.5600000000	      -57.9343046715	      492.1790916208	      -12.5521311072	       -0.7000000000	       -0.0180000000	       -0.5600000000	      176.6255450843	      -57.2742258577	      233.8734580543	     -238.4183715449	       -7.4940216345	      594.2003758322	
       15.0181192283	      132.5255236755	      347.0383401641	       13.0720350711	       -0.7000000000	       -0.0180000000	        0.5600000000	      -58.3038479287	      494.3368227553	      -10.0417519273	       -0.7000000000	       -0.0180000000	       -0.5600000000	      168.1013501162	      -55.8017346978	      222.0437637666	     -239.2500521735	      -10.7343505313	      595.5997133044	
       15.0201194035	      127.4983373053	      329.6904764333	       13.7509371843	       -0.7000000000	       -0.0180000000	        0.5600000000	      -58.7981929297	      497.5539366613	       -7.4227584098	       -0.7000000000	       -0.0180000000	       -0.5600000000	      159.6204320561	      -54.2319831162	      210.3718501561	     -240.5787066155	      -14.1884422907	      598.3410979109	
       15.0221192988	      122.3210773384	      312.4739628156	       14.3289735267	       -0.7000000000	       -0.0180000000	        0.5600000000	      -59.4214841129	      501.7749001263	       -4.7314905659	       -0.7000000000	       -0.0180000000	       -0.5600000000	      151.2016394988	      -52.5714680181	      198.8781427301	     -242.3801050397	      -17.8130418758	      602.3618343206	
       15.0241194340	      117.0289107206	      295.4274838894	       14.7952828349	       -0.7000000000	       -0.0180000000	        0.5600000000	      -60.1723559375	      506.9152183130	       -2.0020393351	       -0.7000000000	       -0.0180000000	       -0.5600000000	      142.8641555125	      -50.8265934266	      187.5813417611	     -244.6161217481	      -21.5648551161	      607.5610988412	
       15.0261193293	      111.6561311430	      278.5907383377	       15.1395629624	       -0.7000000000	       -0.0180000000	        0.5600000000	      -61.0455267036	      512.8674984483	        0.7355726342	       -0.7000000000	       -0.0180000000	       -0.5600000000	      134.6276497611	      -49.0036774875	      176.4993144670	     -247.2376448164	      -25.4031223844	      613.8073618827	
       15.0281194645	      106.2361079141	      262.0050006652	       15.3524140641	       -0.7000000000	       -0.0180000000	        0.5600000000	      -62.0331845027	      519.5078326962	        3.4567605666	       -0.7000000000	       -0.0180000000	       -0.5600000000	      126.5124568728	      -47.1087550321	      165.6504070357	     -250.1876268493	      -29.2916237477	      620.9462816680	
       15.0301193598	      100.8009703688	      245.7132401007	       15.4254937418	       -0.7000000000	       -0.0180000000	        0.5600000000	      -63.1257766519	      526.7022402957	        6.1431876937	       -0.7000000000	       -0.0180000000	       -0.5600000000	      118.5396393387	      -45.1469635661	      155.0542717054	     -253.4041722412	      -33.2000003781	      628.8087818488	
       15.0321194551	       95.3806638385	      229.7595265227	       15.3516726042	       -0.7000000000	       -0.0180000000	        0.5600000000	      -64.3121737644	      534.3127688652	        8.7827726174	       -0.7000000000	       -0.0180000000	       -0.5600000000	      110.7307741441	      -43.1224129480	      144.7315430346	     -256.8234274011	      -37.1041596462	      637.2188193115	
       15.0341192303	       90.0015659355	      214.1879444488	       15.1252163883	       -0.7000000000	       -0.0180000000	        0.5600000000	      -65.5795553394	      542.2028563619	       11.3687637703	       -0.7000000000	       -0.0180000000	       -0.5600000000	      103.1075661555	      -41.0386451886	      134.7026685849	     -260.3820460639	      -40.9856097142	      646.0004088214	
       15.0361195256	       84.6852528841	      199.0415180276	       14.7419816653	       -0.7000000000	       -0.0180000000	        0.5600000000	      -66.9134279347	      550.2419631773	       13.8981471128	       -0.7000000000	       -0.0180000000	       -0.5600000000	       95.6914764910	      -38.8990053561	      124.9868470125	     -264.0193156352	      -44.8299096633	      654.9837973241	
       15.0381192607	       79.4479850051	      184.3614546096	       14.1997166319	       -0.7000000000	       -0.0180000000	        0.5600000000	      -68.2979451347	      558.3095311900	       16.3698101969	       -0.7000000000	       -0.0180000000	       -0.5600000000	       88.5033984029	      -36.7066448955	      115.6017048682	     -267.6790544709	      -48.6246701549	      664.0107098141	
       15.0401195561	       74.3011591367	      170.1867559822	       13.4986067648	       -0.7000000000	       -0.0180000000	        0.5600000000	      -69.7165164074	      566.2981018806	       18.7828384587	       -0.7000000000	       -0.0180000000	       -0.5600000000	       81.5633461854	      -34.4641106896	      106.5636795832	     -271.3111742547	      -52.3576660132	      672.9386428854	
       15.0421192912	       69.2525533779	      156.5539732391	       12.6421480451	       -0.7000000000	       -0.0180000000	        0.5600000000	      -71.1525985325	      574.1156518103	       21.1351164226	       -0.7000000000	       -0.0180000000	       -0.5600000000	       74.8901260459	      -32.1735751605	       97.8885927248	     -274.8728237249	      -56.0154022807	      681.6443287692	
       15.0441196266	       64.3078472697	      143.4967061806	       11.6381785095	       -0.7000000000	       -0.0180000000	        0.5600000000	      -72.5904792723	      581.6875880746	       23.4222798191	       -0.7000000000	       -0.0180000000	       -0.5600000000	       68.5009716654	      -29.8385609558	       89.5917504526	     -278.3292402097	      -59.5822255996	      690.0265525707	
       15.0461193617	       59.4717781889	      131.0447784526	       10.4997532571	       -0.7000000000	       -0.0180000000	        0.5600000000	      -74.0158612230	      588.9583737669	       25.6371053994	       -0.7000000000	       -0.0180000000	       -0.5600000000	       62.4111737419	      -27.4657375341	       81.6873386276	     -281.6543528353	      -63.0400157279	      698.0081839198	
       15.0481196170	       54.7484926896	      119.2234570595	        9.2456843732	       -0.7000000000	       -0.0180000000	        0.5600000000	      -75.4160955913	      595.8920537831	       27.7693831502	       -0.7000000000	       -0.0180000000	       -0.5600000000	       56.6337324228	      -25.0656242511	       74.1875600735	     -284.8309558744	      -66.3683517583	      705.5368752966	
